<svg width="100" height="100" viewBox="0 0 100 100" fill="none" xmlns="http://www.w3.org/2000/svg">
<g filter="url(#filter0_d_501_19818)">
<circle cx="46" cy="46" r="40" fill="#EF8625"/>
</g>
<path fill-rule="evenodd" clip-rule="evenodd" d="M53.7584 39.6671H38.2411L42.3942 30.6902C42.668 30.0976 42.4176 29.3912 41.8362 29.1129C41.2537 28.8343 40.5594 29.0891 40.2858 29.6806L35.6665 39.6667H33.4952C32.492 39.6667 31.538 40.1053 30.8751 40.8696C30.2113 41.6341 29.9024 42.6511 30.0272 43.6632L31.7746 57.8855C31.9923 59.6643 33.4799 61 35.2427 61H56.7573C58.52 61 60.0077 59.6643 60.2254 57.8855L61.9728 43.6632C62.0976 42.6511 61.7887 41.6341 61.1249 40.8696C60.462 40.1053 59.508 39.6667 58.5048 39.6667H56.3335L51.7142 29.6806C51.4406 29.0891 50.7463 28.8343 50.1638 29.1129C49.5824 29.3912 49.332 30.0976 49.6058 30.6902L53.7584 39.6671ZM44.8348 46.7782V53.8893C44.8348 54.5435 45.3567 55.0745 45.9998 55.0745C46.6429 55.0745 47.1647 54.5435 47.1647 53.8893V46.7782C47.1647 46.124 46.6429 45.593 45.9998 45.593C45.3567 45.593 44.8348 46.124 44.8348 46.7782ZM50.6596 46.7782V53.8893C50.6596 54.5435 51.1815 55.0745 51.8246 55.0745C52.4677 55.0745 52.9896 54.5435 52.9896 53.8893V46.7782C52.9896 46.124 52.4677 45.593 51.8246 45.593C51.1815 45.593 50.6596 46.124 50.6596 46.7782ZM39.01 46.7782V53.8893C39.01 54.5435 39.5319 55.0745 40.175 55.0745C40.8181 55.0745 41.3399 54.5435 41.3399 53.8893V46.7782C41.3399 46.124 40.8181 45.593 40.175 45.593C39.5319 45.593 39.01 46.124 39.01 46.7782Z" fill="white"/>
<defs>
<filter id="filter0_d_501_19818" x="0" y="0" width="100" height="100" filterUnits="userSpaceOnUse" color-interpolation-filters="sRGB">
<feFlood flood-opacity="0" result="BackgroundImageFix"/>
<feColorMatrix in="SourceAlpha" type="matrix" values="0 0 0 0 0 0 0 0 0 0 0 0 0 0 0 0 0 0 127 0" result="hardAlpha"/>
<feOffset dx="4" dy="4"/>
<feGaussianBlur stdDeviation="5"/>
<feComposite in2="hardAlpha" operator="out"/>
<feColorMatrix type="matrix" values="0 0 0 0 0.00784314 0 0 0 0 0.0627451 0 0 0 0 0.25098 0 0 0 0.15 0"/>
<feBlend mode="normal" in2="BackgroundImageFix" result="effect1_dropShadow_501_19818"/>
<feBlend mode="normal" in="SourceGraphic" in2="effect1_dropShadow_501_19818" result="shape"/>
</filter>
</defs>
</svg>
