<svg width="100" height="100" viewBox="0 0 100 100" fill="none" xmlns="http://www.w3.org/2000/svg">
<g filter="url(#filter0_d_501_19803)">
<circle cx="46" cy="46" r="40" fill="#EF8625"/>
</g>
<path d="M55.0279 29H35.2877C33.8857 29.002 32.5418 29.5905 31.5506 30.6368C30.5595 31.6831 30.0019 33.1016 30 34.5814V47.9768C30 48.2729 30.1114 48.5567 30.3097 48.7662C30.508 48.9755 30.7769 49.0931 31.0575 49.0931H38.4603V56.9071C38.461 57.9923 38.8698 59.033 39.5967 59.8005C40.3237 60.5676 41.3097 60.9992 42.3377 61H56.4386C57.4666 60.9993 58.4526 60.5677 59.1796 59.8005C59.9064 59.033 60.3153 57.9922 60.316 56.9071V34.5814C60.3141 33.1016 59.7566 31.683 58.7654 30.6368C57.7742 29.5905 56.4303 29.002 55.0284 29H55.0279ZM53.6179 43.1398L45.1577 43.1396C44.7797 43.1396 44.4306 42.9268 44.2418 42.5814C44.0529 42.2361 44.0529 41.8105 44.2418 41.4651C44.4306 41.1198 44.7797 40.907 45.1577 40.907H53.6179C53.9958 40.907 54.345 41.1198 54.5338 41.4651C54.7227 41.8105 54.7227 42.2361 54.5338 42.5814C54.345 42.9268 53.9958 43.1396 53.6179 43.1396V43.1398ZM54.6755 46.4884C54.6755 46.7847 54.564 47.0685 54.3657 47.2778C54.1675 47.4871 53.8984 47.6047 53.6179 47.6047H45.1577C44.7797 47.6047 44.4306 47.3919 44.2418 47.0466C44.0529 46.7012 44.0529 46.2756 44.2418 45.9303C44.4306 45.5849 44.7797 45.3721 45.1577 45.3721H53.6179C53.8984 45.3721 54.1675 45.4898 54.3657 45.6991C54.564 45.9086 54.6755 46.1924 54.6755 46.4884ZM44.1001 37.5581C44.1001 37.2621 44.2115 36.9783 44.4098 36.7688C44.6081 36.5595 44.8772 36.4419 45.1577 36.4419H49.3878C49.7657 36.4419 50.1148 36.6546 50.3037 37C50.4925 37.3454 50.4925 37.7709 50.3037 38.1163C50.1148 38.4616 49.7657 38.6744 49.3878 38.6744H45.1577C44.8772 38.6744 44.6081 38.5568 44.4098 38.3475C44.2115 38.1382 44.1001 37.8544 44.1001 37.5581ZM45.1577 49.8373H53.6179C53.9958 49.8373 54.345 50.0501 54.5338 50.3954C54.7227 50.7408 54.7227 51.1664 54.5338 51.5117C54.345 51.8571 53.9958 52.0699 53.6179 52.0699H45.1577C44.7797 52.0699 44.4306 51.8571 44.2418 51.5117C44.0529 51.1664 44.0529 50.7408 44.2418 50.3954C44.4306 50.0501 44.7797 49.8373 45.1577 49.8373ZM32.1149 46.8604V34.5813C32.1149 33.3848 32.7195 32.2792 33.7012 31.6809C34.6828 31.0827 35.8921 31.0827 36.8738 31.6809C37.8554 32.2792 38.4601 33.3848 38.4601 34.5813V46.8604H32.1149Z" fill="white"/>
<defs>
<filter id="filter0_d_501_19803" x="0" y="0" width="100" height="100" filterUnits="userSpaceOnUse" color-interpolation-filters="sRGB">
<feFlood flood-opacity="0" result="BackgroundImageFix"/>
<feColorMatrix in="SourceAlpha" type="matrix" values="0 0 0 0 0 0 0 0 0 0 0 0 0 0 0 0 0 0 127 0" result="hardAlpha"/>
<feOffset dx="4" dy="4"/>
<feGaussianBlur stdDeviation="5"/>
<feComposite in2="hardAlpha" operator="out"/>
<feColorMatrix type="matrix" values="0 0 0 0 0.00784314 0 0 0 0 0.0627451 0 0 0 0 0.25098 0 0 0 0.15 0"/>
<feBlend mode="normal" in2="BackgroundImageFix" result="effect1_dropShadow_501_19803"/>
<feBlend mode="normal" in="SourceGraphic" in2="effect1_dropShadow_501_19803" result="shape"/>
</filter>
</defs>
</svg>
