<svg width="100" height="100" viewBox="0 0 100 100" fill="none" xmlns="http://www.w3.org/2000/svg">
<g filter="url(#filter0_d_501_19811)">
<circle cx="46" cy="46" r="40" fill="#EF8625"/>
</g>
<path d="M42.1641 37.0105L45.1556 36.0133C45.3871 35.9338 45.6385 35.9338 45.87 36.0133L48.8615 37.0105L48.8618 30.0002H42.1641L42.1641 37.0105Z" fill="white"/>
<path d="M60.0233 49.1704V34.0929C60.0241 33.0072 59.593 31.9657 58.8253 31.1977C58.0576 30.4301 57.0161 29.999 55.9302 30H51.093V38.5578C51.095 38.8545 50.9779 39.1396 50.7681 39.3494C50.5583 39.5592 50.2733 39.676 49.9768 39.674C49.8549 39.6763 49.7338 39.6561 49.6195 39.6145L45.5117 38.2453L41.4039 39.6145C41.0622 39.7313 40.685 39.6758 40.3915 39.4657C40.1039 39.2522 39.933 38.9161 39.9303 38.5578V30H35.0929C34.0072 29.999 32.9657 30.4301 32.1977 31.1978C31.4301 31.9657 30.999 33.0072 31 34.0929V54.9304C30.999 56.0163 31.4301 57.0578 32.1977 57.8255C32.9657 58.5932 34.0072 59.0243 35.0929 59.0235H50.1704C51.3749 60.7204 53.266 61.8003 55.3397 61.975C57.4135 62.1497 59.4587 61.4016 60.9301 59.93C62.4016 58.4587 63.1497 56.4135 62.975 54.3396C62.8004 52.266 61.7202 50.3749 60.0233 49.1704ZM55.9302 59.7674C55.0232 59.7701 54.1344 59.5118 53.3702 59.0234C52.1196 58.2445 51.2931 56.9376 51.1252 55.4739C50.9575 54.0103 51.4668 52.5502 52.5084 51.5084C53.5501 50.4668 55.0103 49.9576 56.4739 50.1252C57.9375 50.2931 59.2445 51.1197 60.0234 52.3702C60.5117 53.1344 60.7701 54.0232 60.7674 54.9302C60.7652 56.2125 60.2546 57.4413 59.3481 58.3481C58.4414 59.2546 57.2124 59.7652 55.9302 59.7674Z" fill="white"/>
<path d="M57.4171 53.8139H57.0451V51.9534C57.0451 51.5547 56.8323 51.1862 56.4869 50.9868C56.1416 50.7873 55.716 50.7873 55.3706 50.9868C55.0253 51.1862 54.8125 51.5547 54.8125 51.9534V54.9302C54.8125 55.2262 54.9301 55.5103 55.1394 55.7196C55.3487 55.9289 55.6328 56.0465 55.9288 56.0465H57.4171C57.816 56.0465 58.1845 55.8337 58.3838 55.4883C58.5832 55.143 58.5832 54.7174 58.3838 54.3721C58.1845 54.0267 57.816 53.8139 57.4171 53.8139Z" fill="white"/>
<defs>
<filter id="filter0_d_501_19811" x="0" y="0" width="100" height="100" filterUnits="userSpaceOnUse" color-interpolation-filters="sRGB">
<feFlood flood-opacity="0" result="BackgroundImageFix"/>
<feColorMatrix in="SourceAlpha" type="matrix" values="0 0 0 0 0 0 0 0 0 0 0 0 0 0 0 0 0 0 127 0" result="hardAlpha"/>
<feOffset dx="4" dy="4"/>
<feGaussianBlur stdDeviation="5"/>
<feComposite in2="hardAlpha" operator="out"/>
<feColorMatrix type="matrix" values="0 0 0 0 0.00784314 0 0 0 0 0.0627451 0 0 0 0 0.25098 0 0 0 0.15 0"/>
<feBlend mode="normal" in2="BackgroundImageFix" result="effect1_dropShadow_501_19811"/>
<feBlend mode="normal" in="SourceGraphic" in2="effect1_dropShadow_501_19811" result="shape"/>
</filter>
</defs>
</svg>
