<?xml version="1.0" standalone="no"?>
<!DOCTYPE svg PUBLIC "-//W3C//DTD SVG 20010904//EN"
 "http://www.w3.org/TR/2001/REC-SVG-20010904/DTD/svg10.dtd">
<svg version="1.0" xmlns="http://www.w3.org/2000/svg"
 width="119.000000pt" height="119.000000pt" viewBox="0 0 119.000000 119.000000"
 preserveAspectRatio="xMidYMid meet">
<metadata>
Created by potrace 1.14, written by Peter Selinger 2001-2017
</metadata>
<g transform="translate(0.000000,119.000000) scale(0.100000,-0.100000)"
fill="#000000" stroke="none">
<path d="M184 603 c-100 -268 -180 -490 -178 -492 6 -7 495 -4 539 3 116 19
207 63 279 134 114 112 139 269 52 332 -30 22 -87 41 -99 33 -5 -3 -7 -1 -4 4
4 6 19 14 34 18 132 33 238 147 249 268 7 74 -16 113 -91 152 l-59 30 -270 3
-271 3 -181 -488z m563 312 c103 -18 79 -150 -38 -209 -47 -23 -64 -26 -161
-26 -59 0 -108 4 -108 9 0 5 13 42 30 82 16 41 30 77 30 80 0 4 6 22 14 40
l14 34 94 -2 c51 -1 107 -5 125 -8z m-120 -383 c40 -12 73 -50 73 -82 0 -68
-55 -134 -130 -158 -38 -13 -280 -21 -280 -10 0 4 21 63 46 132 l47 126 111
-1 c61 -1 121 -4 133 -7z"/>
<path d="M1030 324 c-121 -52 -149 -190 -44 -210 69 -13 159 38 187 106 37 88
-44 147 -143 104z"/>
</g>
</svg>
