<svg width="32" height="32" viewBox="0 0 32 32" fill="none" xmlns="http://www.w3.org/2000/svg">
<path d="M5.67969 14.6934V21.32C5.67969 23.7467 5.67969 23.7467 7.97302 25.2934L14.2797 28.9334C15.2264 29.48 16.773 29.48 17.7197 28.9334L24.0264 25.2934C26.3197 23.7467 26.3197 23.7467 26.3197 21.32V14.6934C26.3197 12.2667 26.3197 12.2667 24.0264 10.72L17.7197 7.08004C16.773 6.53338 15.2264 6.53338 14.2797 7.08004L7.97302 10.72C5.67969 12.2667 5.67969 12.2667 5.67969 14.6934Z" stroke="white" stroke-width="1.5" stroke-linecap="round" stroke-linejoin="round"/>
<path d="M23.3385 10.1733V6.66663C23.3385 3.99996 22.0052 2.66663 19.3385 2.66663H12.6719C10.0052 2.66663 8.67188 3.99996 8.67188 6.66663V10.08" stroke="white" stroke-width="1.5" stroke-linecap="round" stroke-linejoin="round"/>
<path d="M16.8423 14.6533L17.6023 15.8399C17.7223 16.0266 17.989 16.2133 18.189 16.2666L19.549 16.6133C20.389 16.8266 20.6156 17.5466 20.069 18.2133L19.1756 19.2933C19.0423 19.4666 18.9356 19.7733 18.949 19.9866L19.029 21.3866C19.0823 22.2533 18.469 22.6933 17.669 22.3733L16.3623 21.8533C16.1623 21.7733 15.829 21.7733 15.629 21.8533L14.3223 22.3733C13.5223 22.6933 12.909 22.2399 12.9623 21.3866L13.0423 19.9866C13.0556 19.7733 12.949 19.4533 12.8156 19.2933L11.9223 18.2133C11.3756 17.5466 11.6023 16.8266 12.4423 16.6133L13.8023 16.2666C14.0156 16.2133 14.2823 16.0133 14.389 15.8399L15.149 14.6533C15.629 13.9333 16.3756 13.9333 16.8423 14.6533Z" stroke="white" stroke-width="1.5" stroke-linecap="round" stroke-linejoin="round"/>
</svg>
