<svg width="32" height="32" viewBox="0 0 32 32" fill="none" xmlns="http://www.w3.org/2000/svg">
<g clip-path="url(#clip0_631_59258)">
<path d="M22.6719 28H9.33854C4.00521 28 2.67188 26.6667 2.67188 21.3333V10.6667C2.67188 5.33333 4.00521 4 9.33854 4H22.6719C28.0052 4 29.3385 5.33333 29.3385 10.6667V21.3333C29.3385 26.6667 28.0052 28 22.6719 28Z" stroke="white" stroke-width="1.5" stroke-linecap="round" stroke-linejoin="round"/>
<path d="M18.6719 10.6666H25.3385" stroke="white" stroke-width="1.5" stroke-linecap="round" stroke-linejoin="round"/>
<path d="M20 16H25.3333" stroke="white" stroke-width="1.5" stroke-linecap="round" stroke-linejoin="round"/>
<path d="M22.6719 21.3334H25.3385" stroke="white" stroke-width="1.5" stroke-linecap="round" stroke-linejoin="round"/>
<path d="M11.3352 15.0534C12.6681 15.0534 13.7485 13.9729 13.7485 12.64C13.7485 11.3072 12.6681 10.2267 11.3352 10.2267C10.0024 10.2267 8.92188 11.3072 8.92188 12.64C8.92188 13.9729 10.0024 15.0534 11.3352 15.0534Z" stroke="white" stroke-width="1.5" stroke-linecap="round" stroke-linejoin="round"/>
<path d="M16.0052 21.7733C15.8185 19.84 14.2852 18.32 12.3519 18.1467C11.6852 18.08 11.0052 18.08 10.3252 18.1467C8.39187 18.3333 6.85854 19.84 6.67188 21.7733" stroke="white" stroke-width="1.5" stroke-linecap="round" stroke-linejoin="round"/>
</g>
<defs>
<clipPath id="clip0_631_59258">
<rect width="32" height="32" fill="white"/>
</clipPath>
</defs>
</svg>
