<svg width="100" height="100" fill="none" xmlns="http://www.w3.org/2000/svg"><g filter="url(#filter0_d_204_3635)"><circle cx="46" cy="46" r="40" fill="#354889"/></g><path fill-rule="evenodd" clip-rule="evenodd" d="M53.758 39.667H38.241l4.153-8.977a1.195 1.195 0 00-.558-1.577 1.157 1.157 0 00-1.55.568l-4.62 9.986h-2.17a3.469 3.469 0 00-2.62 1.203 3.592 3.592 0 00-.849 2.793l1.748 14.223C31.992 59.663 33.48 61 35.243 61h21.514c1.763 0 3.25-1.336 3.468-3.114l1.748-14.223a3.592 3.592 0 00-.848-2.793 3.469 3.469 0 00-2.62-1.203h-2.172l-4.619-9.986a1.157 1.157 0 00-1.55-.568 1.195 1.195 0 00-.558 1.577l4.152 8.977zm-8.923 7.111v7.111c0 .654.522 1.185 1.165 1.185s1.165-.53 1.165-1.185v-7.11c0-.655-.522-1.186-1.165-1.186s-1.165.531-1.165 1.185zm5.825 0v7.111c0 .654.522 1.185 1.165 1.185s1.165-.53 1.165-1.185v-7.11c0-.655-.522-1.186-1.165-1.186-.644 0-1.165.531-1.165 1.185zm-11.65 0v7.111c0 .654.522 1.185 1.165 1.185s1.165-.53 1.165-1.185v-7.11c0-.655-.522-1.186-1.165-1.186s-1.165.531-1.165 1.185z" fill="#fff"/><defs><filter id="filter0_d_204_3635" x="0" y="0" width="100" height="100" filterUnits="userSpaceOnUse" color-interpolation-filters="sRGB"><feFlood flood-opacity="0" result="BackgroundImageFix"/><feColorMatrix in="SourceAlpha" values="0 0 0 0 0 0 0 0 0 0 0 0 0 0 0 0 0 0 127 0" result="hardAlpha"/><feOffset dx="4" dy="4"/><feGaussianBlur stdDeviation="5"/><feComposite in2="hardAlpha" operator="out"/><feColorMatrix values="0 0 0 0 0.00784314 0 0 0 0 0.0627451 0 0 0 0 0.25098 0 0 0 0.15 0"/><feBlend in2="BackgroundImageFix" result="effect1_dropShadow_204_3635"/><feBlend in="SourceGraphic" in2="effect1_dropShadow_204_3635" result="shape"/></filter></defs></svg>