<svg width="100" height="100" fill="none" xmlns="http://www.w3.org/2000/svg"><g filter="url(#filter0_d_204_3620)"><circle cx="46" cy="46" r="40" fill="#354889"/></g><path d="M55.028 29h-19.74c-1.402.002-2.746.59-3.737 1.637A5.75 5.75 0 0030 34.58v13.396c0 .296.111.58.31.79.198.208.467.326.748.326h7.402v7.814a4.22 4.22 0 001.137 2.894 3.781 3.781 0 002.74 1.2H56.44a3.78 3.78 0 002.74-1.2 4.216 4.216 0 001.137-2.893V34.581a5.75 5.75 0 00-1.55-3.944c-.992-1.047-2.336-1.635-3.738-1.637zm-1.41 14.14h-8.46c-.378 0-.727-.213-.916-.559a1.17 1.17 0 010-1.116 1.05 1.05 0 01.916-.558h8.46c.378 0 .727.213.916.558a1.17 1.17 0 010 1.116 1.049 1.049 0 01-.916.559zm1.057 3.348c0 .297-.111.58-.31.79a1.03 1.03 0 01-.747.327h-8.46a1.05 1.05 0 01-.916-.558 1.17 1.17 0 010-1.117 1.05 1.05 0 01.916-.558h8.46c.28 0 .55.118.748.327.198.21.31.493.31.79zM44.1 37.558c0-.296.111-.58.31-.79a1.03 1.03 0 01.748-.326h4.23c.378 0 .727.213.916.558.188.345.188.77 0 1.116a1.049 1.049 0 01-.916.558h-4.23c-.28 0-.55-.117-.748-.327a1.148 1.148 0 01-.31-.789zm1.058 12.28h8.46c.378 0 .727.212.916.557a1.17 1.17 0 010 1.117 1.049 1.049 0 01-.916.558h-8.46a1.05 1.05 0 01-.916-.558 1.17 1.17 0 010-1.117 1.05 1.05 0 01.916-.558zM32.115 46.86V34.581c0-1.196.604-2.302 1.586-2.9a3.029 3.029 0 013.173 0c.981.598 1.586 1.704 1.586 2.9v12.28h-6.345z" fill="#fff"/><defs><filter id="filter0_d_204_3620" x="0" y="0" width="100" height="100" filterUnits="userSpaceOnUse" color-interpolation-filters="sRGB"><feFlood flood-opacity="0" result="BackgroundImageFix"/><feColorMatrix in="SourceAlpha" values="0 0 0 0 0 0 0 0 0 0 0 0 0 0 0 0 0 0 127 0" result="hardAlpha"/><feOffset dx="4" dy="4"/><feGaussianBlur stdDeviation="5"/><feComposite in2="hardAlpha" operator="out"/><feColorMatrix values="0 0 0 0 0.00784314 0 0 0 0 0.0627451 0 0 0 0 0.25098 0 0 0 0.15 0"/><feBlend in2="BackgroundImageFix" result="effect1_dropShadow_204_3620"/><feBlend in="SourceGraphic" in2="effect1_dropShadow_204_3620" result="shape"/></filter></defs></svg>