<svg width="100" height="100" fill="none" xmlns="http://www.w3.org/2000/svg"><g filter="url(#filter0_d_204_3624)"><circle cx="46" cy="46" r="40" fill="#354889"/></g><path fill-rule="evenodd" clip-rule="evenodd" d="M62 44.477l-14.236 8.676a3.381 3.381 0 01-3.528 0L30 44.477v13.04C30 59.442 31.535 61 33.428 61h25.143c1.894 0 3.428-1.56 3.428-3.482L62 44.478zm-9.143 2.865v-3.754c0-.64-.512-1.16-1.142-1.16h-11.43c-.63 0-1.143.52-1.143 1.16v3.754l6.27 3.82c.361.22.814.22 1.176 0l6.268-3.82zM30 41.77l6.858 4.18v-2.362c0-1.923 1.535-3.482 3.428-3.482h11.428c1.894 0 3.429 1.559 3.429 3.482v2.361L62 41.77v-.448a3.5 3.5 0 00-1.477-2.864l-12.57-8.839a3.387 3.387 0 00-3.905 0l-12.57 8.84A3.5 3.5 0 0030 41.322v.448z" fill="#fff"/><defs><filter id="filter0_d_204_3624" x="0" y="0" width="100" height="100" filterUnits="userSpaceOnUse" color-interpolation-filters="sRGB"><feFlood flood-opacity="0" result="BackgroundImageFix"/><feColorMatrix in="SourceAlpha" values="0 0 0 0 0 0 0 0 0 0 0 0 0 0 0 0 0 0 127 0" result="hardAlpha"/><feOffset dx="4" dy="4"/><feGaussianBlur stdDeviation="5"/><feComposite in2="hardAlpha" operator="out"/><feColorMatrix values="0 0 0 0 0.00784314 0 0 0 0 0.0627451 0 0 0 0 0.25098 0 0 0 0.15 0"/><feBlend in2="BackgroundImageFix" result="effect1_dropShadow_204_3624"/><feBlend in="SourceGraphic" in2="effect1_dropShadow_204_3624" result="shape"/></filter></defs></svg>