<svg width="100" height="100" fill="none" xmlns="http://www.w3.org/2000/svg"><g filter="url(#filter0_d_204_3628)"><circle cx="46" cy="46" r="40" fill="#354889"/></g><path d="M42.162 37.01l2.992-.997c.231-.08.483-.08.714 0l2.992.998V30h-6.698v7.01z" fill="#fff"/><path d="M60.023 49.17V34.093A4.091 4.091 0 0055.93 30h-4.837v8.558a1.109 1.109 0 01-1.116 1.116.99.99 0 01-.357-.06l-4.108-1.369-4.108 1.37a1.118 1.118 0 01-1.013-.15 1.142 1.142 0 01-.46-.907V30h-4.838A4.09 4.09 0 0031 34.093V54.93a4.09 4.09 0 004.093 4.093H50.17a7.067 7.067 0 109.853-9.853zM55.93 59.767a4.728 4.728 0 01-2.56-.744 4.83 4.83 0 116.653-6.653 4.72 4.72 0 01.744 2.56 4.846 4.846 0 01-4.837 4.837z" fill="#fff"/><path d="M57.417 53.814h-.372v-1.86a1.116 1.116 0 00-2.233 0v2.976a1.117 1.117 0 001.117 1.117h1.488a1.116 1.116 0 100-2.233z" fill="#fff"/><defs><filter id="filter0_d_204_3628" x="0" y="0" width="100" height="100" filterUnits="userSpaceOnUse" color-interpolation-filters="sRGB"><feFlood flood-opacity="0" result="BackgroundImageFix"/><feColorMatrix in="SourceAlpha" values="0 0 0 0 0 0 0 0 0 0 0 0 0 0 0 0 0 0 127 0" result="hardAlpha"/><feOffset dx="4" dy="4"/><feGaussianBlur stdDeviation="5"/><feComposite in2="hardAlpha" operator="out"/><feColorMatrix values="0 0 0 0 0.00784314 0 0 0 0 0.0627451 0 0 0 0 0.25098 0 0 0 0.15 0"/><feBlend in2="BackgroundImageFix" result="effect1_dropShadow_204_3628"/><feBlend in="SourceGraphic" in2="effect1_dropShadow_204_3628" result="shape"/></filter></defs></svg>