<svg width="24" height="24" viewBox="0 0 24 24" fill="none" xmlns="http://www.w3.org/2000/svg">
<path d="M12.2184 0C5.71113 0 0.436766 5.23611 0.436766 11.6901C0.436766 13.8981 1.05598 15.9662 2.12578 17.7298L0 24L6.52384 21.9264C8.21285 22.8507 10.1507 23.3829 12.2184 23.3829C18.7256 23.3829 24 18.1467 24 11.6928C24 5.23886 18.7256 0 12.2184 0ZM17.9903 15.7413C17.7526 16.4105 16.8044 16.9673 16.047 17.1264C15.5301 17.2361 14.8528 17.3239 12.575 16.3886C9.66137 15.1927 7.78715 12.2551 7.6434 12.0658C7.50242 11.8738 6.46579 10.5106 6.46579 9.1008C6.46579 7.69097 7.19005 7.00251 7.4803 6.70903C7.71804 6.46491 8.1161 6.35794 8.49205 6.35794C8.61645 6.35794 8.72426 6.36343 8.82377 6.36891C9.11403 6.37989 9.26054 6.39909 9.45404 6.8544C9.69178 7.42491 10.2751 8.83474 10.3442 8.98011C10.416 9.12549 10.4851 9.32023 10.3856 9.51223C10.2916 9.70971 10.2115 9.79474 10.065 9.9648C9.91845 10.1321 9.78024 10.2583 9.63373 10.4366C9.49827 10.5929 9.349 10.7602 9.51762 11.051C9.68625 11.3335 10.2695 12.277 11.1265 13.0313C12.2322 14.0078 13.1306 14.3205 13.4513 14.4549C13.689 14.5536 13.9765 14.5289 14.1507 14.3451C14.3718 14.1065 14.6455 13.7143 14.9247 13.3275C15.1237 13.0505 15.3725 13.0149 15.6351 13.1136C15.9032 13.2041 17.3186 13.9008 17.6116 14.0434C17.9019 14.1888 18.0954 14.2574 18.1645 14.3781C18.2308 14.4987 18.2308 15.072 17.9903 15.7413Z" fill="#1EBD2E"/>
</svg>
